# xmcd
#
# Track frame offsets:
#	150
#	19776
#	40975
#	58747
#	76889
#	98420
#	121568
#	139826
#	160338
#	182366
#	200562
#	220098
#	237573
#	255455
#	274718
#	291046
#	308259
#	323641
#
# Disc length: 4636 seconds
#
# Revision: 0
# Processed by: cddbd v1.5.2PL0 Copyright (c) Steve Scherf et al.
# Submitted via: audiograbber 1.83.01
#
DISCID=ea121a12
DTITLE=Various Artist - In Love With You [CD2]
DYEAR=2005
DGENRE=Ballad
TTITLE0=Toni Braxton with Kenny G - How Could an Angel Break My Heart
TTITLE1=O Town - All or Nothing
TTITLE2=Chicago - If You Leave Me Now
TTITLE3=Mandy Moore - Have a Little Faith in Me
TTITLE4=The Tony Rich Project - Nobody Knows
TTITLE5=Sinead O'Connor - Nothing Compares to You
TTITLE6=Trisha Yearwood - How Do I Live
TTITLE7=Michael Bolton - Missing You Now
TTITLE8=Brian McKnight - One Last Cry
TTITLE9=Take That - Back for Good
TTITLE10=Anita Baker - Sweet Love
TTITLE11=Backstreet Boys - Shape of My Heart
TTITLE12=Kool and the Gang - Cherish
TTITLE13=Air Supply - The One That You Love
TTITLE14=Westlife - Flying Without Wings
TTITLE15=Glenn Medeiros - Nothing's Gonna Change My Love for You
TTITLE16=Simply Red - If You Don't Know Me by Now
TTITLE17=Phil Collins - Another Day in Paradise
EXTD=
EXTT0=
EXTT1=
EXTT2=
EXTT3=
EXTT4=
EXTT5=
EXTT6=
EXTT7=
EXTT8=
EXTT9=
EXTT10=
EXTT11=
EXTT12=
EXTT13=
EXTT14=
EXTT15=
EXTT16=
EXTT17=
PLAYORDER=
